<?xml version="1.0" encoding="utf-8"?>
<!-- Generator: Adobe Illustrator 23.0.1, SVG Export Plug-In . SVG Version: 6.00 Build 0)  -->
<svg version="1.1" id="Layer_1" xmlns="http://www.w3.org/2000/svg" xmlns:xlink="http://www.w3.org/1999/xlink" x="0px" y="0px"
	 viewBox="0 0 3000 1320" style="enable-background:new 0 0 3000 1320;" xml:space="preserve">
<style type="text/css">
	.st0{fill:#FFFFFF;}
</style>
<path class="st0" d="M697.9,264.6h-51.3v-21.9h7.9v-47.6H644v16.6h-17.1v-38.5h90.6v38.5h-17.1v-16.6H690v47.6h8.1v21.9H697.9z"/>
<path class="st0" d="M776,264.6h-50.3v-20h8.3v-51.3h-8.3v-20H767v35.3c8.8-5.9,17.5-8.9,26-8.9c7.5,0,13.4,2.2,17.8,6.5
	c4.4,4.4,6.6,12.1,6.6,23.2v15.2h7.5v20h-40.5v-26.1c0-7.9-0.5-12.9-1.4-14.9c-1-2-3-3-6-3c-3.2,0-6.5,1.1-9.9,3.4v20.6h8.9
	L776,264.6L776,264.6z"/>
<path class="st0" d="M888.5,244.5l27.3,3.4c-1.2,2.8-2.9,5.4-5.1,7.7c-2.2,2.3-4.9,4.2-8,5.9c-6.4,3.4-14,5.1-22.8,5.1
	c-14.8,0-26-3.1-33.5-9.3c-7.5-6.1-11.2-14.2-11.2-24.1c0-9.7,3.7-17.8,11.1-24.3c7.3-6.5,17.2-9.7,29.8-9.7c12,0,21.9,3.1,29.4,9.2
	c7.4,6.1,11.4,15.4,11.9,27.8H867c0.1,10.3,4,15.5,11.6,15.5C883.2,251.6,886.4,249.2,888.5,244.5z M867.4,227.8H886
	c0.1-1.3,0.1-2.1,0.1-2.2c0-3.5-0.9-6.3-2.6-8.6c-1.8-2.2-4.1-3.4-7-3.4c-3,0-5.3,1.2-6.8,3.7c-1.6,2.5-2.4,5.6-2.4,9.2
	C867.4,227,867.4,227.4,867.4,227.8z"/>
<path class="st0" d="M610.3,428.8h-79.6v-35.2h11.2V317h-11.5v-35h79.9v35.2h-11.6v76.6h11.6L610.3,428.8L610.3,428.8z M701.7,428.8
	h-76v-35.2h7.1l-32.2-41.8l37.4-34.7h-12V282h72.3v35.2h-11.4l-30,27.9l37.5,48.7h7.3L701.7,428.8L701.7,428.8z"/>
<path class="st0" d="M785.6,428.8h-72.5v-32.2h10.6v-38h-10.6v-32.2h63.7v70.2h8.9v32.2H785.6z M719.2,297.5c0-5.6,2.9-10,8.6-13.4
	c5.6-3.4,12.6-5.1,20.9-5.1c8.5,0,15.4,1.8,20.6,5.3c5.1,3.6,7.7,8,7.7,13.1c0,5.6-2.7,10-8,13.2c-5.4,3.3-12.2,5-20.5,5
	c-8.4,0-15.3-1.5-20.9-4.5C722,308,719.2,303.5,719.2,297.5z"/>
<path class="st0" d="M873.8,428.8h-73.4v-32.2h10.9v-82.5h-10.9V282h64v114.7h9.4V428.8z"/>
<path class="st0" d="M961.5,428.8h-73.4v-32.2H899v-82.5h-10.9V282h64v114.7h9.4V428.8z"/>
<path class="st0" d="M1048.9,428.8h-72.5v-32.2H987v-38h-10.6v-32.2h63.7v70.2h8.9L1048.9,428.8L1048.9,428.8z M982.4,297.5
	c0-5.6,2.9-10,8.6-13.4c5.6-3.4,12.6-5.1,20.9-5.1c8.5,0,15.4,1.8,20.6,5.3c5.1,3.6,7.7,8,7.7,13.1c0,5.6-2.7,10-8,13.2
	c-5.4,3.3-12.2,5-20.5,5c-8.4,0-15.3-1.5-20.9-4.5C985.2,308,982.4,303.5,982.4,297.5z"/>
<path class="st0" d="M1145,428.8h-81.1v-32.2h13.2v-38h-13.2v-32.2h66.3v13c13-9.9,27-14.9,41.9-14.9c13.1,0,22.9,3.6,29.6,10.9
	c6.5,7.3,9.8,18.9,9.8,35v26.3h12.1v32.2h-65.3v-45.5c0-9.9-0.8-16.5-2.5-19.6c-1.8-3.1-5.3-4.6-10.5-4.6c-4.7,0-9.8,1.8-15.2,5.4
	v32.2h14.8L1145,428.8L1145,428.8z"/>
<path class="st0" d="M1241,466.7l14.6-26c8.2,3.4,19.3,5.2,33.2,5.2c9.2,0,16.3-1.3,21.4-3.9c5.2-2.5,8.6-5.5,10-9
	c1.4-3.4,2.1-8.3,2.1-14.7c-10.6,5.4-22.5,8-35.6,8c-15.3,0-28.2-4.4-38.6-13.1c-10.6-8.7-15.9-20.7-15.9-36
	c0-16.2,5.5-29,16.6-38.5c11-9.5,24.3-14.3,39.9-14.3c12.8,0,24,2.8,33.7,8.4v-6.5h65.7v32.2h-12.8v56.2c0,12.5-1.1,22.2-3.4,28.9
	c-2.3,6.8-6.5,12.5-12.5,17.3c-6,5-13.5,8.6-22.5,10.8c-8.9,2.3-20.8,3.5-35.6,3.5c-6.6,0-12.5-0.2-17.7-0.6s-11.1-1.1-17.8-2.1
	C1254.4,470.7,1246.1,468.8,1241,466.7z M1285.9,378.3c0,6.3,1.6,11.5,4.8,15.6c3.2,4.2,7.7,6.3,13.5,6.3c6.2,0,10.8-2.1,13.8-6.4
	c3-4.2,4.5-9.4,4.5-15.7c0-6.9-1.6-12.5-4.9-16.8c-3.3-4.4-7.7-6.5-13.3-6.5c-6,0-10.6,2.3-13.7,6.9
	C1287.5,366.1,1285.9,371.6,1285.9,378.3z"/>
<g>
	<path class="st0" d="M737.1,557.2h-61.8v-26.3h9.5v-57.3h-12.7v20h-20.6v-46.4h109.1v46.4h-20.6v-20h-12.6v57.3h9.7V557.2z"/>
	<path class="st0" d="M825.3,557.2h-54.3v-24.1h7.9v-28.5h-7.9v-24.1h47.7v52.6h6.6V557.2z M775.5,458.8c0-4.2,2.1-7.5,6.4-10
		c4.2-2.5,9.4-3.8,15.7-3.8c6.4,0,11.5,1.3,15.4,4c3.8,2.7,5.8,6,5.8,9.8c0,4.2-2,7.5-6,9.9c-4.1,2.5-9.2,3.7-15.3,3.7
		c-6.3,0-11.5-1.1-15.7-3.4C777.6,466.7,775.5,463.3,775.5,458.8z"/>
	<path class="st0" d="M898.2,557.2h-60.1v-24.1h9.5v-28.5h-9.7v-24.1h49.5V491c3.8-3.2,8.8-6,15-8.4c6.1-2.4,12-3.6,17.6-3.6
		c13,0,21.8,5,26.2,15c11.8-10,23.8-15,36-15c6.7,0,12.2,1.4,16.5,4.3c4.4,2.9,7.5,6.8,9.3,11.5c1.8,5,2.8,11.9,2.8,20.9v17.3h10.1
		v24.1H971v-33c0-8.6-0.7-13.9-2-16.1c-1.3-2.1-3.7-3.2-7.1-3.2c-4.3,0-8.7,1.6-13.1,4.9v23.2h10.8v24.1h-50.6v-32.8
		c0-8.4-0.6-13.8-1.7-16.1c-1.2-2.2-3.5-3.3-7-3.3c-4.1,0-8.3,1.6-12.8,4.9v23.2h10.8V557.2z"/>
	<path class="st0" d="M1096.4,532.9l32.8,4c-1.5,3.4-3.5,6.5-6.2,9.2c-2.6,2.7-5.9,5.1-9.7,7.1c-7.6,4.1-16.8,6.2-27.4,6.2
		c-17.9,0-31.3-3.7-40.3-11.2c-9-7.4-13.5-17.1-13.5-29c0-11.7,4.5-21.5,13.4-29.3c8.8-7.8,20.8-11.7,35.8-11.7
		c14.5,0,26.3,3.7,35.4,11.1c9,7.3,13.7,18.5,14.3,33.5h-60.4c0.2,12.4,4.8,18.7,13.9,18.7C1090.1,541.5,1094,538.6,1096.4,532.9z
		 M1071.1,512.8h22.4c0.1-1.6,0.2-2.5,0.2-2.7c0-4.2-1.1-7.6-3.2-10.4c-2.1-2.7-4.9-4-8.4-4c-3.6,0-6.3,1.5-8.2,4.4
		c-1.9,3-2.8,6.7-2.8,11.1C1071.1,511.8,1071.1,512.3,1071.1,512.8z"/>
	<path class="st0" d="M1172.4,558.1h-24.6v-24.4h23c5.9,6.2,12.4,9.3,19.4,9.3c7.1,0,10.6-1.5,10.6-4.4c0-1.5-0.8-2.6-2.3-3.4
		c-1.6-0.8-5.8-2.1-12.6-3.7c-5.5-1.5-11.5-3.2-18.2-5.1c-5.7-1.6-10.3-3.7-13.6-6.2c-3.4-2.5-5.7-4.9-6.9-7.3
		c-1.3-2.4-1.9-5.5-1.9-9.3c0-8.5,3-14.7,9-18.7c6-4,13.5-5.9,22.7-5.9c9.5,0,17.5,1.8,23.9,5.4v-4h24.3v22.3h-22.5
		c-5.6-5.3-12.2-8-19.9-8c-6.1,0-9.1,1.6-9.1,4.8c0,1.5,0.9,2.5,2.7,3c1.5,0.5,6.6,1.6,15.2,3.4c9.8,2.1,17.4,4.1,22.9,6.2
		c5.4,2.1,9.5,4.8,12.3,8.1c2.7,3.4,4,7.5,4,12.4c0,8.9-3.3,15.4-9.9,19.6c-6.5,4.2-14.6,6.2-24.2,6.2c-9.5,0-17.6-1.7-24.3-5.2
		V558.1z"/>
</g>
</svg>
