<?xml version="1.0" encoding="utf-8"?>
<!-- Generator: Adobe Illustrator 23.0.1, SVG Export Plug-In . SVG Version: 6.00 Build 0)  -->
<svg version="1.1" id="Layer_1" xmlns="http://www.w3.org/2000/svg" xmlns:xlink="http://www.w3.org/1999/xlink" x="0px" y="0px"
	 viewBox="0 0 3000 1320" style="enable-background:new 0 0 3000 1320;" xml:space="preserve">
<style type="text/css">
	.st0{fill:#FFFFFF;}
</style>
<g>
	<path class="st0" d="M697.9,261.6h-51.3v-21.9h7.9v-47.6H644v16.6h-17.1v-38.5h90.6v38.5h-17.1v-16.6h-10.4v47.6h8.1V261.6z"/>
	<path class="st0" d="M776,261.6h-50.3v-20h8.3v-51.3h-8.3v-20H767v35.3c8.8-5.9,17.5-8.9,26-8.9c7.5,0,13.4,2.2,17.8,6.5
		c4.4,4.4,6.6,12.1,6.6,23.2v15.2h7.5v20h-40.5v-26.1c0-7.9-0.5-12.9-1.4-14.9c-1-2-3-3-6-3c-3.2,0-6.5,1.1-9.9,3.4v20.6h8.9V261.6z
		"/>
	<path class="st0" d="M888.5,241.5l27.3,3.4c-1.2,2.8-2.9,5.4-5.1,7.7c-2.2,2.3-4.9,4.2-8,5.9c-6.4,3.4-14,5.1-22.8,5.1
		c-14.8,0-26-3.1-33.5-9.3c-7.5-6.1-11.2-14.2-11.2-24.1c0-9.7,3.7-17.8,11.1-24.3c7.3-6.5,17.2-9.7,29.8-9.7
		c12,0,21.9,3.1,29.4,9.2c7.4,6.1,11.4,15.4,11.9,27.8H867c0.1,10.3,4,15.5,11.6,15.5C883.2,248.6,886.4,246.2,888.5,241.5z
		 M867.4,224.8H886c0.1-1.3,0.1-2.1,0.1-2.2c0-3.5-0.9-6.3-2.6-8.6c-1.8-2.2-4.1-3.4-7-3.4c-3,0-5.3,1.2-6.8,3.7
		c-1.6,2.5-2.4,5.6-2.4,9.2C867.4,224,867.4,224.4,867.4,224.8z"/>
</g>
<g>
	<path class="st0" d="M610.3,428.8h-79.6v-35.2h11.2v-76.6h-11.5V282h79.9v35.2h-11.6v76.6h11.6V428.8z M701.7,428.8h-76v-35.2h7.1
		l-32.2-41.8l37.4-34.7H626V282h72.3v35.2h-11.4l-30,27.9l37.5,48.7h7.3V428.8z"/>
	<path class="st0" d="M785.6,428.8h-72.5v-32.2h10.6v-38h-10.6v-32.2h63.7v70.2h8.9V428.8z M719.2,297.5c0-5.6,2.9-10,8.6-13.4
		c5.6-3.4,12.6-5.1,20.9-5.1c8.5,0,15.4,1.8,20.6,5.3c5.1,3.6,7.7,8,7.7,13.1c0,5.6-2.7,10-8,13.2c-5.4,3.3-12.2,5-20.5,5
		c-8.4,0-15.3-1.5-20.9-4.5C722,308,719.2,303.5,719.2,297.5z"/>
	<path class="st0" d="M873.8,428.8h-73.4v-32.2h10.9v-82.5h-10.9V282h64v114.7h9.4V428.8z"/>
	<path class="st0" d="M961.5,428.8h-73.4v-32.2H899v-82.5h-10.9V282h64v114.7h9.4V428.8z"/>
	<path class="st0" d="M1048.9,428.8h-72.5v-32.2h10.6v-38h-10.6v-32.2h63.7v70.2h8.9V428.8z M982.4,297.5c0-5.6,2.9-10,8.6-13.4
		c5.6-3.4,12.6-5.1,20.9-5.1c8.5,0,15.4,1.8,20.6,5.3c5.1,3.6,7.7,8,7.7,13.1c0,5.6-2.7,10-8,13.2c-5.4,3.3-12.2,5-20.5,5
		c-8.4,0-15.3-1.5-20.9-4.5C985.2,308,982.4,303.5,982.4,297.5z"/>
	<path class="st0" d="M1145,428.8h-81.1v-32.2h13.2v-38h-13.2v-32.2h66.3v13c13-9.9,27-14.9,41.9-14.9c13.1,0,22.9,3.6,29.6,10.9
		c6.5,7.3,9.8,18.9,9.8,35v26.3h12.1v32.2h-65.3v-45.5c0-9.9-0.8-16.5-2.5-19.6c-1.8-3.1-5.3-4.6-10.5-4.6c-4.7,0-9.8,1.8-15.2,5.4
		v32.2h14.8V428.8z"/>
	<path class="st0" d="M1241,466.7l14.6-26c8.2,3.4,19.3,5.2,33.2,5.2c9.2,0,16.3-1.3,21.4-3.9c5.2-2.5,8.6-5.5,10-9
		c1.4-3.4,2.1-8.3,2.1-14.7c-10.6,5.4-22.5,8-35.6,8c-15.3,0-28.2-4.4-38.6-13.1c-10.6-8.7-15.9-20.7-15.9-36
		c0-16.2,5.5-29,16.6-38.5c11-9.5,24.3-14.3,39.9-14.3c12.8,0,24,2.8,33.7,8.4v-6.5h65.7v32.2h-12.8v56.2c0,12.5-1.1,22.2-3.4,28.9
		c-2.3,6.8-6.5,12.5-12.5,17.3c-6,5-13.5,8.6-22.5,10.8c-8.9,2.3-20.8,3.5-35.6,3.5c-6.6,0-12.5-0.2-17.7-0.6
		c-5.2-0.4-11.1-1.1-17.8-2.1C1254.4,470.7,1246.1,468.8,1241,466.7z M1285.9,378.3c0,6.3,1.6,11.5,4.8,15.6
		c3.2,4.2,7.7,6.3,13.5,6.3c6.2,0,10.8-2.1,13.8-6.4c3-4.2,4.5-9.4,4.5-15.7c0-6.9-1.6-12.5-4.9-16.8c-3.3-4.4-7.7-6.5-13.3-6.5
		c-6,0-10.6,2.3-13.7,6.9C1287.5,366.1,1285.9,371.6,1285.9,378.3z"/>
</g>
<g>
	<path class="st0" d="M811,562.1h-66v-28.1h10.1v-61.2h-13.5v21.4h-22v-49.5h116.5v49.5h-22v-21.4h-13.4v61.2H811V562.1z"/>
	<path class="st0" d="M905.2,562.1h-58v-25.8h8.4v-30.4h-8.4v-25.8h50.9v56.2h7.1V562.1z M852.1,457c0-4.4,2.3-8,6.8-10.7
		c4.5-2.7,10.1-4.1,16.7-4.1c6.8,0,12.3,1.4,16.5,4.2c4.1,2.9,6.2,6.4,6.2,10.5c0,4.4-2.1,8-6.4,10.6c-4.3,2.6-9.8,4-16.4,4
		c-6.7,0-12.3-1.2-16.7-3.6C854.3,465.4,852.1,461.8,852.1,457z"/>
	<path class="st0" d="M983.1,562.1h-64.2v-25.8H929v-30.4h-10.3v-25.8h52.9v11.2c4.1-3.4,9.4-6.4,16-9c6.5-2.5,12.8-3.8,18.8-3.8
		c13.9,0,23.2,5.4,28,16.1c12.6-10.7,25.4-16.1,38.4-16.1c7.2,0,13,1.5,17.7,4.6c4.7,3.1,8.1,7.2,10,12.3c2,5.3,3,12.7,3,22.3v18.5
		h10.8v25.8h-53.3v-35.2c0-9.2-0.7-14.9-2.1-17.1c-1.4-2.3-3.9-3.4-7.6-3.4c-4.6,0-9.3,1.7-13.9,5.2v24.8h11.6v25.8h-54.1V527
		c0-9-0.6-14.7-1.9-17.1c-1.2-2.4-3.7-3.5-7.5-3.5c-4.3,0-8.9,1.7-13.7,5.2v24.8h11.5V562.1z"/>
	<path class="st0" d="M1187.8,536.1l35.1,4.3c-1.6,3.7-3.8,6.9-6.6,9.8c-2.8,2.9-6.3,5.4-10.3,7.6c-8.2,4.4-17.9,6.6-29.3,6.6
		c-19.1,0-33.5-4-43.1-11.9c-9.6-7.9-14.4-18.2-14.4-31c0-12.5,4.8-22.9,14.3-31.3c9.4-8.3,22.2-12.5,38.3-12.5
		c15.5,0,28.1,3.9,37.8,11.8c9.6,7.8,14.7,19.7,15.3,35.7h-64.5c0.2,13.3,5.1,19.9,14.9,19.9C1181,545.3,1185.2,542.2,1187.8,536.1z
		 M1160.7,514.7h23.9c0.1-1.7,0.2-2.6,0.2-2.9c0-4.4-1.1-8.1-3.4-11.1c-2.3-2.9-5.2-4.3-9-4.3c-3.8,0-6.8,1.6-8.8,4.7
		c-2,3.2-3,7.2-3,11.8C1160.7,513.6,1160.7,514.2,1160.7,514.7z"/>
</g>
</svg>
